<?xml version="1.0"?>
<svg xmlns="http://www.w3.org/2000/svg" xmlns:xlink="http://www.w3.org/1999/xlink" version="1.1" id="Capa_1" x="0px" y="0px" viewBox="0 0 507.273 507.273" style="enable-background:new 0 0 507.273 507.273;" xml:space="preserve" width="512px" height="512px" class=""><g><g transform="translate(0 -1)">
	<path d="M15.999,508.273c-6.47-0.001-12.303-3.9-14.779-9.878c-2.476-5.978-1.108-12.859,3.467-17.434   L479.858,5.789c4.029-4.103,9.95-5.727,15.508-4.256s9.9,5.813,11.372,11.372c1.471,5.559-0.153,11.479-4.256,15.508   L27.311,503.585C24.314,506.591,20.243,508.278,15.999,508.273z" data-original="#428DFF" class="active-path" data-old_color="#428DFF" fill="#1A25FB"/>
	<path d="M491.17,508.273c-4.244,0.005-8.315-1.682-11.312-4.688L4.686,28.413   C-1.494,22.154-1.463,12.079,4.757,5.86s16.295-6.251,22.554-0.07L502.482,480.96c4.575,4.576,5.943,11.457,3.467,17.434   C503.473,504.373,497.641,508.271,491.17,508.273L491.17,508.273z" data-original="#428DFF" class="active-path" data-old_color="#428DFF" fill="#1A25FB"/>
</g></g> </svg>
